<mxfile host="app.diagrams.net" modified="2023-01-06T06:53:28.184Z" agent="5.0 (Windows NT 10.0; Win64; x64) AppleWebKit/537.36 (KHTML, like Gecko) Chrome/108.0.0.0 Safari/537.36" etag="tWc4eofrit-BQQ5iBDzX" version="20.2.2" type="github">
  <diagram id="O2VmL0b9vW7oK0DRmLxH" name="第 1 页">
    <mxGraphModel dx="4767" dy="671" grid="1" gridSize="10" guides="1" tooltips="1" connect="1" arrows="1" fold="1" page="1" pageScale="1" pageWidth="3300" pageHeight="4681" math="0" shadow="0">
      <root>
        <mxCell id="0" />
        <mxCell id="1" parent="0" />
        <mxCell id="RKvN3lWJfi6Z_vdyfoKV-32" value="" style="edgeStyle=orthogonalEdgeStyle;rounded=0;orthogonalLoop=1;jettySize=auto;html=1;" edge="1" parent="1" source="RKvN3lWJfi6Z_vdyfoKV-12" target="RKvN3lWJfi6Z_vdyfoKV-31">
          <mxGeometry relative="1" as="geometry" />
        </mxCell>
        <mxCell id="RKvN3lWJfi6Z_vdyfoKV-12" value="MainPage" style="rounded=1;whiteSpace=wrap;html=1;" vertex="1" parent="1">
          <mxGeometry x="890" y="4370" width="120" height="30" as="geometry" />
        </mxCell>
        <mxCell id="RKvN3lWJfi6Z_vdyfoKV-34" value="" style="edgeStyle=orthogonalEdgeStyle;rounded=0;orthogonalLoop=1;jettySize=auto;html=1;" edge="1" parent="1" source="RKvN3lWJfi6Z_vdyfoKV-31" target="RKvN3lWJfi6Z_vdyfoKV-33">
          <mxGeometry relative="1" as="geometry" />
        </mxCell>
        <mxCell id="RKvN3lWJfi6Z_vdyfoKV-36" value="" style="edgeStyle=orthogonalEdgeStyle;rounded=0;orthogonalLoop=1;jettySize=auto;html=1;" edge="1" parent="1" source="RKvN3lWJfi6Z_vdyfoKV-31" target="RKvN3lWJfi6Z_vdyfoKV-35">
          <mxGeometry relative="1" as="geometry" />
        </mxCell>
        <mxCell id="RKvN3lWJfi6Z_vdyfoKV-37" value="" style="edgeStyle=orthogonalEdgeStyle;rounded=0;orthogonalLoop=1;jettySize=auto;html=1;" edge="1" parent="1" source="RKvN3lWJfi6Z_vdyfoKV-31" target="RKvN3lWJfi6Z_vdyfoKV-35">
          <mxGeometry relative="1" as="geometry" />
        </mxCell>
        <mxCell id="RKvN3lWJfi6Z_vdyfoKV-38" value="" style="edgeStyle=orthogonalEdgeStyle;rounded=0;orthogonalLoop=1;jettySize=auto;html=1;" edge="1" parent="1" source="RKvN3lWJfi6Z_vdyfoKV-31" target="RKvN3lWJfi6Z_vdyfoKV-35">
          <mxGeometry relative="1" as="geometry" />
        </mxCell>
        <mxCell id="RKvN3lWJfi6Z_vdyfoKV-49" value="&lt;div style=&quot;color: rgb(92, 97, 102); background-color: rgb(252, 252, 252); font-family: Consolas, &amp;quot;Courier New&amp;quot;, monospace; font-size: 14px; line-height: 19px;&quot;&gt;&lt;span style=&quot;color: #86b300;&quot;&gt;/customer/:pps/techSup/ticket&lt;/span&gt;&lt;/div&gt;" style="edgeLabel;html=1;align=center;verticalAlign=middle;resizable=0;points=[];" vertex="1" connectable="0" parent="RKvN3lWJfi6Z_vdyfoKV-38">
          <mxGeometry x="0.5707" y="-2" relative="1" as="geometry">
            <mxPoint y="1" as="offset" />
          </mxGeometry>
        </mxCell>
        <mxCell id="RKvN3lWJfi6Z_vdyfoKV-40" value="" style="edgeStyle=orthogonalEdgeStyle;rounded=0;orthogonalLoop=1;jettySize=auto;html=1;" edge="1" parent="1" source="RKvN3lWJfi6Z_vdyfoKV-31" target="RKvN3lWJfi6Z_vdyfoKV-39">
          <mxGeometry relative="1" as="geometry" />
        </mxCell>
        <mxCell id="RKvN3lWJfi6Z_vdyfoKV-50" value="&lt;div style=&quot;color: rgb(92, 97, 102); background-color: rgb(252, 252, 252); font-family: Consolas, &amp;quot;Courier New&amp;quot;, monospace; font-size: 14px; line-height: 19px;&quot;&gt;&lt;span style=&quot;color: #86b300;&quot;&gt;/customer/:pps/techSup/createCase&lt;/span&gt;&lt;/div&gt;" style="edgeLabel;html=1;align=center;verticalAlign=middle;resizable=0;points=[];" vertex="1" connectable="0" parent="RKvN3lWJfi6Z_vdyfoKV-40">
          <mxGeometry x="0.4601" y="-1" relative="1" as="geometry">
            <mxPoint x="19" y="-1" as="offset" />
          </mxGeometry>
        </mxCell>
        <mxCell id="RKvN3lWJfi6Z_vdyfoKV-47" value="" style="edgeStyle=orthogonalEdgeStyle;rounded=0;orthogonalLoop=1;jettySize=auto;html=1;" edge="1" parent="1" source="RKvN3lWJfi6Z_vdyfoKV-31" target="RKvN3lWJfi6Z_vdyfoKV-46">
          <mxGeometry relative="1" as="geometry" />
        </mxCell>
        <mxCell id="RKvN3lWJfi6Z_vdyfoKV-48" value="&lt;div style=&quot;color: rgb(92, 97, 102); background-color: rgb(252, 252, 252); font-family: Consolas, &amp;quot;Courier New&amp;quot;, monospace; font-size: 14px; line-height: 19px;&quot;&gt;&lt;span style=&quot;color: #86b300;&quot;&gt;/customer/:pps/techSup/maint&lt;/span&gt;&lt;/div&gt;" style="edgeLabel;html=1;align=center;verticalAlign=middle;resizable=0;points=[];" vertex="1" connectable="0" parent="RKvN3lWJfi6Z_vdyfoKV-47">
          <mxGeometry x="0.2317" y="2" relative="1" as="geometry">
            <mxPoint y="-1" as="offset" />
          </mxGeometry>
        </mxCell>
        <mxCell id="RKvN3lWJfi6Z_vdyfoKV-31" value="Router" style="whiteSpace=wrap;html=1;rounded=1;" vertex="1" parent="1">
          <mxGeometry x="890" y="4310" width="120" height="25" as="geometry" />
        </mxCell>
        <mxCell id="RKvN3lWJfi6Z_vdyfoKV-53" value="" style="edgeStyle=orthogonalEdgeStyle;rounded=0;orthogonalLoop=1;jettySize=auto;html=1;" edge="1" parent="1" source="RKvN3lWJfi6Z_vdyfoKV-33" target="RKvN3lWJfi6Z_vdyfoKV-52">
          <mxGeometry relative="1" as="geometry" />
        </mxCell>
        <mxCell id="RKvN3lWJfi6Z_vdyfoKV-33" value="&lt;div style=&quot;color: rgb(92, 97, 102); background-color: rgb(252, 252, 252); font-family: Consolas, &amp;quot;Courier New&amp;quot;, monospace; font-size: 14px; line-height: 19px;&quot;&gt;TechSupCaseListPanel&lt;/div&gt;" style="whiteSpace=wrap;html=1;rounded=1;" vertex="1" parent="1">
          <mxGeometry x="420" y="4200" width="200" height="30" as="geometry" />
        </mxCell>
        <mxCell id="RKvN3lWJfi6Z_vdyfoKV-35" value="&lt;div style=&quot;color: rgb(92, 97, 102); background-color: rgb(252, 252, 252); font-family: Consolas, &amp;quot;Courier New&amp;quot;, monospace; font-size: 14px; line-height: 19px;&quot;&gt;TechSupportEditTicket&lt;/div&gt;" style="whiteSpace=wrap;html=1;rounded=1;" vertex="1" parent="1">
          <mxGeometry x="1310" y="4040" width="200" height="30" as="geometry" />
        </mxCell>
        <mxCell id="RKvN3lWJfi6Z_vdyfoKV-85" value="" style="edgeStyle=orthogonalEdgeStyle;rounded=0;orthogonalLoop=1;jettySize=auto;html=1;" edge="1" parent="1" source="RKvN3lWJfi6Z_vdyfoKV-39" target="RKvN3lWJfi6Z_vdyfoKV-84">
          <mxGeometry relative="1" as="geometry" />
        </mxCell>
        <mxCell id="RKvN3lWJfi6Z_vdyfoKV-39" value="&lt;div style=&quot;color: rgb(92, 97, 102); background-color: rgb(252, 252, 252); font-family: Consolas, &amp;quot;Courier New&amp;quot;, monospace; font-size: 14px; line-height: 19px;&quot;&gt;TechSupportCreateCase&lt;/div&gt;" style="whiteSpace=wrap;html=1;rounded=1;" vertex="1" parent="1">
          <mxGeometry x="690" y="3780" width="190" height="30" as="geometry" />
        </mxCell>
        <mxCell id="RKvN3lWJfi6Z_vdyfoKV-43" value="&lt;div style=&quot;color: rgb(92, 97, 102); background-color: rgb(252, 252, 252); font-family: Consolas, &amp;quot;Courier New&amp;quot;, monospace; font-size: 14px; line-height: 19px;&quot;&gt;&lt;span style=&quot;color: #86b300;&quot;&gt;/customer/:pps/techSup&lt;/span&gt;&lt;/div&gt;" style="text;html=1;align=center;verticalAlign=middle;resizable=0;points=[];autosize=1;strokeColor=none;fillColor=none;" vertex="1" parent="1">
          <mxGeometry x="430" y="4270" width="190" height="30" as="geometry" />
        </mxCell>
        <mxCell id="RKvN3lWJfi6Z_vdyfoKV-46" value="&lt;div style=&quot;color: rgb(92, 97, 102); background-color: rgb(252, 252, 252); font-family: Consolas, &amp;quot;Courier New&amp;quot;, monospace; font-size: 14px; line-height: 19px;&quot;&gt;TechSupportViewMaint&lt;/div&gt;" style="whiteSpace=wrap;html=1;rounded=1;" vertex="1" parent="1">
          <mxGeometry x="1020" y="4040" width="170" height="30" as="geometry" />
        </mxCell>
        <mxCell id="RKvN3lWJfi6Z_vdyfoKV-62" value="" style="edgeStyle=orthogonalEdgeStyle;rounded=0;orthogonalLoop=1;jettySize=auto;html=1;" edge="1" parent="1" source="RKvN3lWJfi6Z_vdyfoKV-52" target="RKvN3lWJfi6Z_vdyfoKV-61">
          <mxGeometry relative="1" as="geometry" />
        </mxCell>
        <mxCell id="RKvN3lWJfi6Z_vdyfoKV-66" value="" style="edgeStyle=orthogonalEdgeStyle;rounded=0;orthogonalLoop=1;jettySize=auto;html=1;" edge="1" parent="1" source="RKvN3lWJfi6Z_vdyfoKV-52" target="RKvN3lWJfi6Z_vdyfoKV-65">
          <mxGeometry relative="1" as="geometry" />
        </mxCell>
        <mxCell id="RKvN3lWJfi6Z_vdyfoKV-73" value="" style="edgeStyle=orthogonalEdgeStyle;rounded=0;orthogonalLoop=1;jettySize=auto;html=1;" edge="1" parent="1" source="RKvN3lWJfi6Z_vdyfoKV-52" target="RKvN3lWJfi6Z_vdyfoKV-72">
          <mxGeometry relative="1" as="geometry">
            <Array as="points">
              <mxPoint x="335" y="4075" />
              <mxPoint x="380" y="4075" />
            </Array>
          </mxGeometry>
        </mxCell>
        <mxCell id="RKvN3lWJfi6Z_vdyfoKV-83" style="edgeStyle=orthogonalEdgeStyle;rounded=0;orthogonalLoop=1;jettySize=auto;html=1;exitX=1;exitY=0.5;exitDx=0;exitDy=0;entryX=0.5;entryY=1;entryDx=0;entryDy=0;" edge="1" parent="1" source="RKvN3lWJfi6Z_vdyfoKV-52" target="RKvN3lWJfi6Z_vdyfoKV-39">
          <mxGeometry relative="1" as="geometry" />
        </mxCell>
        <mxCell id="RKvN3lWJfi6Z_vdyfoKV-52" value="&lt;div style=&quot;color: rgb(92, 97, 102); background-color: rgb(252, 252, 252); font-family: Consolas, &amp;quot;Courier New&amp;quot;, monospace; font-size: 14px; line-height: 19px;&quot;&gt;TechSupListSel&lt;/div&gt;" style="whiteSpace=wrap;html=1;rounded=1;" vertex="1" parent="1">
          <mxGeometry x="270" y="4130" width="130" height="40" as="geometry" />
        </mxCell>
        <mxCell id="RKvN3lWJfi6Z_vdyfoKV-61" value="&lt;div style=&quot;color: rgb(92, 97, 102); background-color: rgb(252, 252, 252); font-family: Consolas, &amp;quot;Courier New&amp;quot;, monospace; font-size: 14px; line-height: 19px;&quot;&gt;TicketList&lt;/div&gt;" style="whiteSpace=wrap;html=1;rounded=1;" vertex="1" parent="1">
          <mxGeometry x="70" y="4050" width="120" height="40" as="geometry" />
        </mxCell>
        <mxCell id="RKvN3lWJfi6Z_vdyfoKV-65" value="&lt;div style=&quot;color: rgb(92, 97, 102); background-color: rgb(252, 252, 252); font-family: Consolas, &amp;quot;Courier New&amp;quot;, monospace; font-size: 14px; line-height: 19px;&quot;&gt;MaintList&lt;/div&gt;" style="whiteSpace=wrap;html=1;rounded=1;" vertex="1" parent="1">
          <mxGeometry x="210" y="4050" width="115" height="40" as="geometry" />
        </mxCell>
        <mxCell id="RKvN3lWJfi6Z_vdyfoKV-78" value="" style="edgeStyle=orthogonalEdgeStyle;rounded=0;orthogonalLoop=1;jettySize=auto;html=1;" edge="1" parent="1" source="RKvN3lWJfi6Z_vdyfoKV-72" target="RKvN3lWJfi6Z_vdyfoKV-77">
          <mxGeometry relative="1" as="geometry">
            <Array as="points">
              <mxPoint x="450" y="3915" />
            </Array>
          </mxGeometry>
        </mxCell>
        <mxCell id="RKvN3lWJfi6Z_vdyfoKV-80" value="" style="edgeStyle=orthogonalEdgeStyle;rounded=0;orthogonalLoop=1;jettySize=auto;html=1;" edge="1" parent="1" source="RKvN3lWJfi6Z_vdyfoKV-72" target="RKvN3lWJfi6Z_vdyfoKV-79">
          <mxGeometry relative="1" as="geometry" />
        </mxCell>
        <mxCell id="RKvN3lWJfi6Z_vdyfoKV-72" value="BN/HT?" style="rhombus;whiteSpace=wrap;html=1;rounded=1;" vertex="1" parent="1">
          <mxGeometry x="410" y="3970" width="80" height="80" as="geometry" />
        </mxCell>
        <mxCell id="RKvN3lWJfi6Z_vdyfoKV-81" style="edgeStyle=orthogonalEdgeStyle;rounded=0;orthogonalLoop=1;jettySize=auto;html=1;exitX=1;exitY=0.5;exitDx=0;exitDy=0;entryX=0.5;entryY=1;entryDx=0;entryDy=0;" edge="1" parent="1" source="RKvN3lWJfi6Z_vdyfoKV-77" target="RKvN3lWJfi6Z_vdyfoKV-39">
          <mxGeometry relative="1" as="geometry" />
        </mxCell>
        <mxCell id="RKvN3lWJfi6Z_vdyfoKV-77" value="&lt;div style=&quot;color: rgb(92, 97, 102); background-color: rgb(252, 252, 252); font-family: Consolas, &amp;quot;Courier New&amp;quot;, monospace; font-size: 14px; line-height: 19px;&quot;&gt;&lt;span style=&quot;color: #399ee6;&quot;&gt;BnCheckingResultModal&lt;/span&gt;&lt;/div&gt;" style="whiteSpace=wrap;html=1;rounded=1;" vertex="1" parent="1">
          <mxGeometry x="500" y="3900" width="200" height="30" as="geometry" />
        </mxCell>
        <mxCell id="RKvN3lWJfi6Z_vdyfoKV-82" style="edgeStyle=orthogonalEdgeStyle;rounded=0;orthogonalLoop=1;jettySize=auto;html=1;exitX=1;exitY=0.5;exitDx=0;exitDy=0;entryX=0.5;entryY=1;entryDx=0;entryDy=0;" edge="1" parent="1" source="RKvN3lWJfi6Z_vdyfoKV-79" target="RKvN3lWJfi6Z_vdyfoKV-39">
          <mxGeometry relative="1" as="geometry" />
        </mxCell>
        <mxCell id="RKvN3lWJfi6Z_vdyfoKV-79" value="&lt;div style=&quot;color: rgb(92, 97, 102); background-color: rgb(252, 252, 252); font-family: Consolas, &amp;quot;Courier New&amp;quot;, monospace; font-size: 14px; line-height: 19px;&quot;&gt;&lt;span style=&quot;color: #399ee6;&quot;&gt;HtCheckingResultModal&lt;/span&gt;&lt;/div&gt;" style="whiteSpace=wrap;html=1;rounded=1;" vertex="1" parent="1">
          <mxGeometry x="500" y="3995" width="210" height="35" as="geometry" />
        </mxCell>
        <mxCell id="RKvN3lWJfi6Z_vdyfoKV-87" value="" style="edgeStyle=orthogonalEdgeStyle;rounded=0;orthogonalLoop=1;jettySize=auto;html=1;" edge="1" parent="1" source="RKvN3lWJfi6Z_vdyfoKV-84" target="RKvN3lWJfi6Z_vdyfoKV-86">
          <mxGeometry relative="1" as="geometry" />
        </mxCell>
        <mxCell id="RKvN3lWJfi6Z_vdyfoKV-89" value="" style="edgeStyle=orthogonalEdgeStyle;rounded=0;orthogonalLoop=1;jettySize=auto;html=1;" edge="1" parent="1" source="RKvN3lWJfi6Z_vdyfoKV-84" target="RKvN3lWJfi6Z_vdyfoKV-88">
          <mxGeometry relative="1" as="geometry" />
        </mxCell>
        <mxCell id="RKvN3lWJfi6Z_vdyfoKV-84" value="&lt;div style=&quot;color: rgb(92, 97, 102); background-color: rgb(252, 252, 252); font-family: Consolas, &amp;quot;Courier New&amp;quot;, monospace; font-size: 14px; line-height: 19px;&quot;&gt;createCsTicket&lt;/div&gt;" style="whiteSpace=wrap;html=1;rounded=1;" vertex="1" parent="1">
          <mxGeometry x="713.75" y="3650" width="142.5" height="30" as="geometry" />
        </mxCell>
        <mxCell id="RKvN3lWJfi6Z_vdyfoKV-91" value="" style="edgeStyle=orthogonalEdgeStyle;rounded=0;orthogonalLoop=1;jettySize=auto;html=1;" edge="1" parent="1" source="RKvN3lWJfi6Z_vdyfoKV-86" target="RKvN3lWJfi6Z_vdyfoKV-90">
          <mxGeometry relative="1" as="geometry" />
        </mxCell>
        <mxCell id="RKvN3lWJfi6Z_vdyfoKV-86" value="&lt;div style=&quot;color: rgb(92, 97, 102); background-color: rgb(252, 252, 252); font-family: Consolas, &amp;quot;Courier New&amp;quot;, monospace; font-size: 14px; line-height: 19px;&quot;&gt;&lt;span style=&quot;color: #399ee6;&quot;&gt;Ticket&lt;/span&gt;&lt;/div&gt;" style="whiteSpace=wrap;html=1;rounded=1;" vertex="1" parent="1">
          <mxGeometry x="-50" y="3550" width="170" height="30" as="geometry" />
        </mxCell>
        <mxCell id="RKvN3lWJfi6Z_vdyfoKV-109" value="" style="edgeStyle=orthogonalEdgeStyle;rounded=0;orthogonalLoop=1;jettySize=auto;html=1;" edge="1" parent="1" source="RKvN3lWJfi6Z_vdyfoKV-88" target="RKvN3lWJfi6Z_vdyfoKV-108">
          <mxGeometry relative="1" as="geometry" />
        </mxCell>
        <mxCell id="RKvN3lWJfi6Z_vdyfoKV-111" value="" style="edgeStyle=orthogonalEdgeStyle;rounded=0;orthogonalLoop=1;jettySize=auto;html=1;" edge="1" parent="1" source="RKvN3lWJfi6Z_vdyfoKV-88" target="RKvN3lWJfi6Z_vdyfoKV-110">
          <mxGeometry relative="1" as="geometry" />
        </mxCell>
        <mxCell id="RKvN3lWJfi6Z_vdyfoKV-113" value="" style="edgeStyle=orthogonalEdgeStyle;rounded=0;orthogonalLoop=1;jettySize=auto;html=1;" edge="1" parent="1" source="RKvN3lWJfi6Z_vdyfoKV-88" target="RKvN3lWJfi6Z_vdyfoKV-112">
          <mxGeometry relative="1" as="geometry" />
        </mxCell>
        <mxCell id="RKvN3lWJfi6Z_vdyfoKV-115" value="" style="edgeStyle=orthogonalEdgeStyle;rounded=0;orthogonalLoop=1;jettySize=auto;html=1;" edge="1" parent="1" source="RKvN3lWJfi6Z_vdyfoKV-88" target="RKvN3lWJfi6Z_vdyfoKV-114">
          <mxGeometry relative="1" as="geometry" />
        </mxCell>
        <mxCell id="RKvN3lWJfi6Z_vdyfoKV-88" value="&lt;div style=&quot;color: rgb(92, 97, 102); background-color: rgb(252, 252, 252); font-family: Consolas, &amp;quot;Courier New&amp;quot;, monospace; font-size: 14px; line-height: 19px;&quot;&gt;&lt;div style=&quot;line-height: 19px;&quot;&gt;&lt;span style=&quot;color: #f2ae49;&quot;&gt;MaintCpe&lt;/span&gt;&lt;/div&gt;&lt;/div&gt;" style="whiteSpace=wrap;html=1;rounded=1;" vertex="1" parent="1">
          <mxGeometry x="1390" y="3545" width="155" height="30" as="geometry" />
        </mxCell>
        <mxCell id="RKvN3lWJfi6Z_vdyfoKV-96" value="" style="edgeStyle=orthogonalEdgeStyle;rounded=0;orthogonalLoop=1;jettySize=auto;html=1;" edge="1" parent="1" source="RKvN3lWJfi6Z_vdyfoKV-90" target="RKvN3lWJfi6Z_vdyfoKV-95">
          <mxGeometry relative="1" as="geometry" />
        </mxCell>
        <mxCell id="RKvN3lWJfi6Z_vdyfoKV-98" value="" style="edgeStyle=orthogonalEdgeStyle;rounded=0;orthogonalLoop=1;jettySize=auto;html=1;" edge="1" parent="1" source="RKvN3lWJfi6Z_vdyfoKV-90" target="RKvN3lWJfi6Z_vdyfoKV-97">
          <mxGeometry relative="1" as="geometry" />
        </mxCell>
        <mxCell id="RKvN3lWJfi6Z_vdyfoKV-101" value="" style="edgeStyle=orthogonalEdgeStyle;rounded=0;orthogonalLoop=1;jettySize=auto;html=1;" edge="1" parent="1" source="RKvN3lWJfi6Z_vdyfoKV-90" target="RKvN3lWJfi6Z_vdyfoKV-100">
          <mxGeometry relative="1" as="geometry" />
        </mxCell>
        <mxCell id="RKvN3lWJfi6Z_vdyfoKV-103" value="" style="edgeStyle=orthogonalEdgeStyle;rounded=0;orthogonalLoop=1;jettySize=auto;html=1;" edge="1" parent="1" source="RKvN3lWJfi6Z_vdyfoKV-90" target="RKvN3lWJfi6Z_vdyfoKV-102">
          <mxGeometry relative="1" as="geometry" />
        </mxCell>
        <mxCell id="RKvN3lWJfi6Z_vdyfoKV-105" value="" style="edgeStyle=orthogonalEdgeStyle;rounded=0;orthogonalLoop=1;jettySize=auto;html=1;" edge="1" parent="1" source="RKvN3lWJfi6Z_vdyfoKV-90" target="RKvN3lWJfi6Z_vdyfoKV-104">
          <mxGeometry relative="1" as="geometry" />
        </mxCell>
        <mxCell id="RKvN3lWJfi6Z_vdyfoKV-107" value="" style="edgeStyle=orthogonalEdgeStyle;rounded=0;orthogonalLoop=1;jettySize=auto;html=1;" edge="1" parent="1" source="RKvN3lWJfi6Z_vdyfoKV-90" target="RKvN3lWJfi6Z_vdyfoKV-106">
          <mxGeometry relative="1" as="geometry" />
        </mxCell>
        <mxCell id="RKvN3lWJfi6Z_vdyfoKV-90" value="&lt;div style=&quot;color: rgb(92, 97, 102); background-color: rgb(252, 252, 252); font-family: Consolas, &amp;quot;Courier New&amp;quot;, monospace; font-size: 14px; line-height: 19px;&quot;&gt;&lt;span style=&quot;color: #f2ae49;&quot;&gt;TicketPanelContent&lt;/span&gt;&lt;/div&gt;" style="whiteSpace=wrap;html=1;rounded=1;" vertex="1" parent="1">
          <mxGeometry x="-58.75" y="3480" width="187.5" height="30" as="geometry" />
        </mxCell>
        <mxCell id="RKvN3lWJfi6Z_vdyfoKV-95" value="&lt;div style=&quot;color: rgb(92, 97, 102); background-color: rgb(252, 252, 252); font-family: Consolas, &amp;quot;Courier New&amp;quot;, monospace; font-size: 14px; line-height: 19px;&quot;&gt;&lt;span style=&quot;color: #399ee6;&quot;&gt;SameSeriesTicket&lt;/span&gt;&lt;/div&gt;" style="whiteSpace=wrap;html=1;rounded=1;" vertex="1" parent="1">
          <mxGeometry x="-700" y="3390" width="160" height="30" as="geometry" />
        </mxCell>
        <mxCell id="RKvN3lWJfi6Z_vdyfoKV-97" value="&lt;div style=&quot;color: rgb(92, 97, 102); background-color: rgb(252, 252, 252); font-family: Consolas, &amp;quot;Courier New&amp;quot;, monospace; font-size: 14px; line-height: 19px;&quot;&gt;&lt;span style=&quot;color: #399ee6;&quot;&gt;TicketInfo&lt;/span&gt;&lt;/div&gt;" style="whiteSpace=wrap;html=1;rounded=1;" vertex="1" parent="1">
          <mxGeometry x="-500" y="3390" width="170" height="30" as="geometry" />
        </mxCell>
        <mxCell id="RKvN3lWJfi6Z_vdyfoKV-100" value="&lt;div style=&quot;color: rgb(92, 97, 102); background-color: rgb(252, 252, 252); font-family: Consolas, &amp;quot;Courier New&amp;quot;, monospace; font-size: 14px; line-height: 19px;&quot;&gt;&lt;span style=&quot;color: #399ee6;&quot;&gt;TroubleShoot&lt;/span&gt;&lt;/div&gt;" style="whiteSpace=wrap;html=1;rounded=1;" vertex="1" parent="1">
          <mxGeometry x="-270" y="3390" width="170" height="30" as="geometry" />
        </mxCell>
        <mxCell id="RKvN3lWJfi6Z_vdyfoKV-102" value="&lt;div style=&quot;color: rgb(92, 97, 102); background-color: rgb(252, 252, 252); font-family: Consolas, &amp;quot;Courier New&amp;quot;, monospace; font-size: 14px; line-height: 19px;&quot;&gt;&lt;span style=&quot;color: #399ee6;&quot;&gt;ActionPage&lt;/span&gt;&lt;/div&gt;" style="whiteSpace=wrap;html=1;rounded=1;" vertex="1" parent="1">
          <mxGeometry x="150" y="3390" width="185" height="30" as="geometry" />
        </mxCell>
        <mxCell id="RKvN3lWJfi6Z_vdyfoKV-104" value="&lt;div style=&quot;color: rgb(92, 97, 102); background-color: rgb(252, 252, 252); font-family: Consolas, &amp;quot;Courier New&amp;quot;, monospace; font-size: 14px; line-height: 19px;&quot;&gt;&lt;span style=&quot;color: #399ee6;&quot;&gt;FollowPanel&lt;/span&gt;&lt;/div&gt;" style="whiteSpace=wrap;html=1;rounded=1;" vertex="1" parent="1">
          <mxGeometry x="380" y="3390" width="190" height="30" as="geometry" />
        </mxCell>
        <mxCell id="RKvN3lWJfi6Z_vdyfoKV-106" value="&lt;div style=&quot;color: rgb(92, 97, 102); background-color: rgb(252, 252, 252); font-family: Consolas, &amp;quot;Courier New&amp;quot;, monospace; font-size: 14px; line-height: 19px;&quot;&gt;&lt;span style=&quot;color: #399ee6;&quot;&gt;FollowResult&lt;/span&gt;&lt;/div&gt;" style="whiteSpace=wrap;html=1;rounded=1;" vertex="1" parent="1">
          <mxGeometry x="-42.5" y="3390" width="155" height="30" as="geometry" />
        </mxCell>
        <mxCell id="RKvN3lWJfi6Z_vdyfoKV-118" value="" style="edgeStyle=orthogonalEdgeStyle;rounded=0;orthogonalLoop=1;jettySize=auto;html=1;" edge="1" parent="1" source="RKvN3lWJfi6Z_vdyfoKV-108" target="RKvN3lWJfi6Z_vdyfoKV-117">
          <mxGeometry relative="1" as="geometry" />
        </mxCell>
        <mxCell id="RKvN3lWJfi6Z_vdyfoKV-120" value="" style="edgeStyle=orthogonalEdgeStyle;rounded=0;orthogonalLoop=1;jettySize=auto;html=1;" edge="1" parent="1" source="RKvN3lWJfi6Z_vdyfoKV-108" target="RKvN3lWJfi6Z_vdyfoKV-119">
          <mxGeometry relative="1" as="geometry" />
        </mxCell>
        <mxCell id="RKvN3lWJfi6Z_vdyfoKV-122" value="" style="edgeStyle=orthogonalEdgeStyle;rounded=0;orthogonalLoop=1;jettySize=auto;html=1;" edge="1" parent="1" source="RKvN3lWJfi6Z_vdyfoKV-108" target="RKvN3lWJfi6Z_vdyfoKV-121">
          <mxGeometry relative="1" as="geometry" />
        </mxCell>
        <mxCell id="RKvN3lWJfi6Z_vdyfoKV-108" value="&lt;div style=&quot;color: rgb(92, 97, 102); background-color: rgb(252, 252, 252); font-family: Consolas, &amp;quot;Courier New&amp;quot;, monospace; font-size: 14px; line-height: 19px;&quot;&gt;&lt;span style=&quot;color: #399ee6;&quot;&gt;MaintCpeContent&lt;/span&gt;&lt;/div&gt;" style="whiteSpace=wrap;html=1;rounded=1;" vertex="1" parent="1">
          <mxGeometry x="930" y="3475" width="170" height="30" as="geometry" />
        </mxCell>
        <mxCell id="RKvN3lWJfi6Z_vdyfoKV-110" value="&lt;div style=&quot;color: rgb(92, 97, 102); background-color: rgb(252, 252, 252); font-family: Consolas, &amp;quot;Courier New&amp;quot;, monospace; font-size: 14px; line-height: 19px;&quot;&gt;&lt;span style=&quot;color: #399ee6;&quot;&gt;CancelMaintModal&lt;/span&gt;&lt;/div&gt;" style="whiteSpace=wrap;html=1;rounded=1;" vertex="1" parent="1">
          <mxGeometry x="1146.25" y="3475" width="160" height="30" as="geometry" />
        </mxCell>
        <mxCell id="RKvN3lWJfi6Z_vdyfoKV-112" value="&lt;div style=&quot;color: rgb(92, 97, 102); background-color: rgb(252, 252, 252); font-family: Consolas, &amp;quot;Courier New&amp;quot;, monospace; font-size: 14px; line-height: 19px;&quot;&gt;&lt;span style=&quot;color: #399ee6;&quot;&gt;EMessageRecordModal&lt;/span&gt;&lt;/div&gt;" style="whiteSpace=wrap;html=1;rounded=1;" vertex="1" parent="1">
          <mxGeometry x="1620" y="3475" width="180" height="30" as="geometry" />
        </mxCell>
        <mxCell id="RKvN3lWJfi6Z_vdyfoKV-114" value="&lt;div style=&quot;color: rgb(92, 97, 102); background-color: rgb(252, 252, 252); font-family: Consolas, &amp;quot;Courier New&amp;quot;, monospace; font-size: 14px; line-height: 19px;&quot;&gt;&lt;span style=&quot;color: #399ee6;&quot;&gt;MaintEditLogModal&lt;/span&gt;&lt;/div&gt;" style="whiteSpace=wrap;html=1;rounded=1;" vertex="1" parent="1">
          <mxGeometry x="1376.25" y="3475" width="182.5" height="30" as="geometry" />
        </mxCell>
        <mxCell id="RKvN3lWJfi6Z_vdyfoKV-117" value="&lt;div style=&quot;color: rgb(92, 97, 102); background-color: rgb(252, 252, 252); font-family: Consolas, &amp;quot;Courier New&amp;quot;, monospace; font-size: 14px; line-height: 19px;&quot;&gt;&lt;span style=&quot;color: #399ee6;&quot;&gt;SameSeriesTicket&lt;/span&gt;&lt;/div&gt;" style="whiteSpace=wrap;html=1;rounded=1;" vertex="1" parent="1">
          <mxGeometry x="600" y="3390" width="130" height="30" as="geometry" />
        </mxCell>
        <mxCell id="RKvN3lWJfi6Z_vdyfoKV-119" value="&lt;div style=&quot;color: rgb(92, 97, 102); background-color: rgb(252, 252, 252); font-family: Consolas, &amp;quot;Courier New&amp;quot;, monospace; font-size: 14px; line-height: 19px;&quot;&gt;&lt;span style=&quot;color: #399ee6;&quot;&gt;MaintInfo&lt;/span&gt;&lt;/div&gt;" style="whiteSpace=wrap;html=1;rounded=1;" vertex="1" parent="1">
          <mxGeometry x="750" y="3390" width="140" height="30" as="geometry" />
        </mxCell>
        <mxCell id="RKvN3lWJfi6Z_vdyfoKV-124" value="" style="edgeStyle=orthogonalEdgeStyle;rounded=0;orthogonalLoop=1;jettySize=auto;html=1;" edge="1" parent="1" source="RKvN3lWJfi6Z_vdyfoKV-121" target="RKvN3lWJfi6Z_vdyfoKV-123">
          <mxGeometry relative="1" as="geometry" />
        </mxCell>
        <mxCell id="RKvN3lWJfi6Z_vdyfoKV-126" value="" style="edgeStyle=orthogonalEdgeStyle;rounded=0;orthogonalLoop=1;jettySize=auto;html=1;" edge="1" parent="1" source="RKvN3lWJfi6Z_vdyfoKV-121" target="RKvN3lWJfi6Z_vdyfoKV-125">
          <mxGeometry relative="1" as="geometry" />
        </mxCell>
        <mxCell id="RKvN3lWJfi6Z_vdyfoKV-128" value="" style="edgeStyle=orthogonalEdgeStyle;rounded=0;orthogonalLoop=1;jettySize=auto;html=1;" edge="1" parent="1" source="RKvN3lWJfi6Z_vdyfoKV-121" target="RKvN3lWJfi6Z_vdyfoKV-127">
          <mxGeometry relative="1" as="geometry" />
        </mxCell>
        <mxCell id="RKvN3lWJfi6Z_vdyfoKV-121" value="&lt;div style=&quot;color: rgb(92, 97, 102); background-color: rgb(252, 252, 252); font-family: Consolas, &amp;quot;Courier New&amp;quot;, monospace; font-size: 14px; line-height: 19px;&quot;&gt;&lt;span style=&quot;color: #399ee6;&quot;&gt;CpeForm&lt;/span&gt;&lt;/div&gt;" style="whiteSpace=wrap;html=1;rounded=1;" vertex="1" parent="1">
          <mxGeometry x="932.5" y="3320" width="165" height="30" as="geometry" />
        </mxCell>
        <mxCell id="RKvN3lWJfi6Z_vdyfoKV-123" value="&lt;div style=&quot;color: rgb(92, 97, 102); background-color: rgb(252, 252, 252); font-family: Consolas, &amp;quot;Courier New&amp;quot;, monospace; font-size: 14px; line-height: 19px;&quot;&gt;&lt;span style=&quot;color: #399ee6;&quot;&gt;MaintSelectBookingDate&lt;/span&gt;&lt;/div&gt;" style="whiteSpace=wrap;html=1;rounded=1;" vertex="1" parent="1">
          <mxGeometry x="656.25" y="3237.5" width="200" height="30" as="geometry" />
        </mxCell>
        <mxCell id="RKvN3lWJfi6Z_vdyfoKV-125" value="&lt;div style=&quot;color: rgb(92, 97, 102); background-color: rgb(252, 252, 252); font-family: Consolas, &amp;quot;Courier New&amp;quot;, monospace; font-size: 14px; line-height: 19px;&quot;&gt;&lt;span style=&quot;color: #399ee6;&quot;&gt;MaintPreBookingDate&lt;/span&gt;&lt;/div&gt;" style="whiteSpace=wrap;html=1;rounded=1;" vertex="1" parent="1">
          <mxGeometry x="1170" y="3240" width="220" height="30" as="geometry" />
        </mxCell>
        <mxCell id="RKvN3lWJfi6Z_vdyfoKV-127" value="&lt;div style=&quot;color: rgb(92, 97, 102); background-color: rgb(252, 252, 252); font-family: Consolas, &amp;quot;Courier New&amp;quot;, monospace; font-size: 14px; line-height: 19px;&quot;&gt;&lt;span style=&quot;color: #399ee6;&quot;&gt;SearchAddressModal&lt;/span&gt;&lt;/div&gt;" style="whiteSpace=wrap;html=1;rounded=1;" vertex="1" parent="1">
          <mxGeometry x="911.25" y="3240" width="207.5" height="27.5" as="geometry" />
        </mxCell>
      </root>
    </mxGraphModel>
  </diagram>
</mxfile>
